<svg width="47" height="38" viewBox="0 0 47 38" fill="none" xmlns="http://www.w3.org/2000/svg">
<g filter="url(#filter0_d_258_2550)">
<path d="M23.2506 10.2625C28.0435 10.2625 31.5294 12.6628 33.6332 14.7133C35.1458 16.1863 36 18.2091 36 20.3228C36 20.9456 35.6718 21.521 35.134 21.8354C34.6041 22.1478 33.9476 22.1577 33.4078 21.865C31.1794 20.6569 25.2813 17.5704 23.2506 17.5704C21.22 17.5704 15.3218 20.6569 13.0934 21.865C12.5517 22.1577 11.8972 22.1478 11.3673 21.8354C10.8314 21.519 10.5012 20.9436 10.5012 20.3228C10.5012 18.211 11.3534 16.1883 12.868 14.7133C14.9718 12.6648 18.4597 10.2625 23.2506 10.2625Z" fill="#DC985F" stroke="#222222" stroke-linecap="round" stroke-linejoin="round"/>
<path d="M23.2506 8.73999C25.655 8.73999 27.7074 9.2086 29.2951 9.76421C31.4365 10.5136 32.6584 12.7677 32.1068 14.9703L31.1518 18.7865C30.7958 20.214 29.39 21.1196 27.9427 20.8527L27.7568 20.8191C24.7889 20.2753 21.7736 20.2734 18.8334 20.8072C18.7978 20.8132 18.7622 20.8211 18.7266 20.827C17.1745 21.1078 15.6718 20.1369 15.2921 18.6065C15.0133 17.4775 14.6831 16.1567 14.3866 14.9664C13.8389 12.7657 15.0588 10.5156 17.2002 9.76619C18.7899 9.21058 20.8403 8.74197 23.2467 8.74197L23.2506 8.73999Z" fill="#DC985F" stroke="#222222" stroke-linecap="round" stroke-linejoin="round"/>
<path d="M23.0351 23C21.0677 23 19.4305 21.4933 19.2664 19.5339L18.5586 11.0989C18.3727 8.89224 20.1147 7 22.3272 7H23.743C25.9575 7 27.6975 8.89224 27.5116 11.0989L26.8038 19.5339C26.6396 21.4933 25.0005 23 23.0351 23Z" fill="#DC985F" stroke="#222222" stroke-linecap="round" stroke-linejoin="round"/>
<path d="M20.8107 8.73999C20.8107 8.73999 19.2546 9.10381 20.0336 13.0425" stroke="white" stroke-miterlimit="10" stroke-linecap="round"/>
<path d="M15.2684 12.6531C15.2684 12.6531 15.1221 13.9284 15.561 14.8221" stroke="white" stroke-miterlimit="10" stroke-linecap="round"/>
<path d="M20.3124 15.3284L20.52 17.4183" stroke="white" stroke-miterlimit="10" stroke-linecap="round"/>
</g>
<defs>
<filter id="filter0_d_258_2550" x="0.00123596" y="0.5" width="46.4988" height="37" filterUnits="userSpaceOnUse" color-interpolation-filters="sRGB">
<feFlood flood-opacity="0" result="BackgroundImageFix"/>
<feColorMatrix in="SourceAlpha" type="matrix" values="0 0 0 0 0 0 0 0 0 0 0 0 0 0 0 0 0 0 127 0" result="hardAlpha"/>
<feOffset dy="4"/>
<feGaussianBlur stdDeviation="5"/>
<feComposite in2="hardAlpha" operator="out"/>
<feColorMatrix type="matrix" values="0 0 0 0 0 0 0 0 0 0 0 0 0 0 0 0 0 0 0.1 0"/>
<feBlend mode="normal" in2="BackgroundImageFix" result="effect1_dropShadow_258_2550"/>
<feBlend mode="normal" in="SourceGraphic" in2="effect1_dropShadow_258_2550" result="shape"/>
</filter>
</defs>
</svg>
