<svg width="61" height="60" viewBox="0 0 61 60" fill="none" xmlns="http://www.w3.org/2000/svg">
<circle cx="30.5" cy="30" r="29.5" fill="white" stroke="#E8E8E8"/>
<path d="M30.5 60C47.0685 60 60.5 46.5686 60.5 30C60.5 13.4315 47.0685 0 30.5 0C13.9315 0 0.5 13.4315 0.5 30C0.5 46.5686 13.9315 60 30.5 60Z" fill="#F9DB00"/>
<path d="M30.5 15.5156C21.875 15.5156 14.8907 21.0844 14.8907 27.9469C14.8907 32.3156 17.7124 36.15 21.9874 38.3625L20.5157 44.475L27.5564 40.1531C28.5126 40.2938 29.4875 40.3781 30.5 40.3781C39.1156 40.3781 46.1093 34.8094 46.1093 27.9469C46.1093 21.0844 39.125 15.5156 30.5 15.5156Z" fill="#3E1918"/>
</svg>
