<svg width="67" height="12" viewBox="0 0 67 12" fill="none" xmlns="http://www.w3.org/2000/svg">
<path fill-rule="evenodd" clip-rule="evenodd" d="M46.0894 0H60.9106C62.1587 0 62.6113 0.129956 63.0676 0.373986C63.5239 0.618016 63.882 0.97612 64.126 1.43242C64.37 1.88871 64.5 2.34131 64.5 3.58944V7.91056C64.5 9.15869 64.37 9.61129 64.126 10.0676C63.882 10.5239 63.5239 10.882 63.0676 11.126C62.6113 11.37 62.1587 11.5 60.9106 11.5H46.0894C44.8413 11.5 44.3887 11.37 43.9324 11.126C43.4761 10.882 43.118 10.5239 42.874 10.0676C42.63 9.61129 42.5 9.15869 42.5 7.91056V3.58944C42.5 2.34131 42.63 1.88871 42.874 1.43242C43.118 0.97612 43.4761 0.618016 43.9324 0.373986C44.3887 0.129956 44.8413 0 46.0894 0ZM46.0894 1C45.1025 1 44.7579 1.06654 44.404 1.2558C44.122 1.40663 43.9066 1.62199 43.7558 1.90401C43.5665 2.2579 43.5 2.60246 43.5 3.58944V7.91056C43.5 8.89754 43.5665 9.2421 43.7558 9.59599C43.9066 9.87801 44.122 10.0934 44.404 10.2442C44.7579 10.4335 45.1025 10.5 46.0894 10.5H60.9106C61.8975 10.5 62.2421 10.4335 62.596 10.2442C62.878 10.0934 63.0934 9.87801 63.2442 9.59599C63.4335 9.2421 63.5 8.89754 63.5 7.91056V3.58944C63.5 2.60246 63.4335 2.2579 63.2442 1.90401C63.0934 1.62199 62.878 1.40663 62.596 1.2558C62.2421 1.06654 61.8975 1 60.9106 1H46.0894ZM67 5.69C67 6.92657 65.5 7.69 65.5 7.69V3.69C65.5 3.69 67 4.45343 67 5.69Z" fill="#292929"/>
<rect x="44.5" y="1.91663" width="18" height="7.66667" rx="1.6" fill="#292929"/>
<path fill-rule="evenodd" clip-rule="evenodd" d="M14.123 1.40583C14.1 1.52175 14.1 1.66115 14.1 1.93994V9.63994C14.1 9.91873 14.1 10.0581 14.123 10.174C14.2177 10.6501 14.5898 11.0222 15.0659 11.1169C15.1818 11.1399 15.3212 11.1399 15.6 11.1399C15.8788 11.1399 16.0182 11.1399 16.1341 11.1169C16.6101 11.0222 16.9822 10.6501 17.0769 10.174C17.1 10.0581 17.1 9.91873 17.1 9.63994V1.93994C17.1 1.66115 17.1 1.52175 17.0769 1.40583C16.9822 0.929804 16.6101 0.557687 16.1341 0.462999C16.0182 0.439941 15.8788 0.439941 15.6 0.439941C15.3212 0.439941 15.1818 0.439941 15.0659 0.462999C14.5898 0.557687 14.2177 0.929804 14.123 1.40583ZM9.39999 4.33994C9.39999 4.06115 9.39999 3.92175 9.42305 3.80583C9.51774 3.32981 9.88986 2.95769 10.3659 2.863C10.4818 2.83994 10.6212 2.83994 10.9 2.83994C11.1788 2.83994 11.3182 2.83994 11.4341 2.863C11.9101 2.95769 12.2822 3.32981 12.3769 3.80583C12.4 3.92175 12.4 4.06115 12.4 4.33994V9.63995C12.4 9.91874 12.4 10.0581 12.3769 10.1741C12.2822 10.6501 11.9101 11.0222 11.4341 11.1169C11.3182 11.1399 11.1788 11.1399 10.9 11.1399C10.6212 11.1399 10.4818 11.1399 10.3659 11.1169C9.88986 11.0222 9.51774 10.6501 9.42305 10.1741C9.39999 10.0581 9.39999 9.91874 9.39999 9.63995V4.33994ZM4.82305 6.10584C4.79999 6.22176 4.79999 6.36115 4.79999 6.63995V9.63995C4.79999 9.91874 4.79999 10.0581 4.82305 10.1741C4.91773 10.6501 5.28985 11.0222 5.76588 11.1169C5.8818 11.1399 6.02119 11.1399 6.29999 11.1399C6.57878 11.1399 6.71818 11.1399 6.8341 11.1169C7.31012 11.0222 7.68224 10.6501 7.77693 10.1741C7.79999 10.0581 7.79999 9.91874 7.79999 9.63995V6.63995C7.79999 6.36115 7.79999 6.22176 7.77693 6.10584C7.68224 5.62981 7.31012 5.25769 6.8341 5.163C6.71818 5.13995 6.57878 5.13995 6.29999 5.13995C6.02119 5.13995 5.8818 5.13995 5.76588 5.163C5.28985 5.25769 4.91773 5.62981 4.82305 6.10584ZM0.0230577 8.10584C0 8.22176 0 8.36115 0 8.63995V9.63995C0 9.91874 0 10.0581 0.0230577 10.1741C0.117746 10.6501 0.489863 11.0222 0.965892 11.1169C1.08181 11.1399 1.22121 11.1399 1.5 11.1399C1.77879 11.1399 1.91819 11.1399 2.03411 11.1169C2.51014 11.0222 2.88225 10.6501 2.97694 10.1741C3 10.0581 3 9.91874 3 9.63995V8.63995C3 8.36115 3 8.22176 2.97694 8.10584C2.88225 7.62981 2.51014 7.25769 2.03411 7.163C1.91819 7.13995 1.77879 7.13995 1.5 7.13995C1.22121 7.13995 1.08181 7.13995 0.965892 7.163C0.489863 7.25769 0.117746 7.62981 0.0230577 8.10584Z" fill="#292929"/>
<path fill-rule="evenodd" clip-rule="evenodd" d="M29.8004 2.53635C32.0348 2.53645 34.1838 3.395 35.8031 4.93456C35.9251 5.05342 36.12 5.05192 36.2401 4.9312L37.4058 3.75478C37.4666 3.69355 37.5005 3.61061 37.5 3.52432C37.4995 3.43802 37.4646 3.35549 37.4031 3.29497C33.1527 -0.778337 26.4474 -0.778337 22.197 3.29497C22.1355 3.35544 22.1005 3.43795 22.1 3.52425C22.0994 3.61054 22.1333 3.69351 22.194 3.75478L23.36 4.9312C23.48 5.0521 23.6751 5.0536 23.797 4.93456C25.4165 3.3949 27.5658 2.53635 29.8004 2.53635V2.53635ZM29.8004 6.36374C31.0281 6.36366 32.2119 6.81998 33.1219 7.64401C33.245 7.76096 33.4389 7.75843 33.5589 7.6383L34.7232 6.46188C34.7845 6.40018 34.8185 6.31647 34.8177 6.22948C34.8168 6.1425 34.781 6.05949 34.7185 5.99905C31.9473 3.4213 27.6558 3.4213 24.8847 5.99905C24.8221 6.05949 24.7863 6.14254 24.7855 6.22955C24.7847 6.31656 24.8188 6.40027 24.8803 6.46188L26.0443 7.6383C26.1642 7.75843 26.3581 7.76096 26.4812 7.64401C27.3906 6.82052 28.5735 6.36425 29.8004 6.36374V6.36374ZM32.0379 9.17134C32.1002 9.11023 32.1345 9.02613 32.1327 8.9389C32.1309 8.85167 32.0932 8.76904 32.0285 8.71052C30.7423 7.62262 28.8585 7.62262 27.5723 8.71052C27.5075 8.76899 27.4697 8.85159 27.4679 8.93882C27.4661 9.02605 27.5003 9.11018 27.5625 9.17134L29.5769 11.2038C29.6359 11.2636 29.7164 11.2972 29.8004 11.2972C29.8844 11.2972 29.9649 11.2636 30.0239 11.2038L32.0379 9.17134Z" fill="#292929"/>
</svg>
