<svg width="20" height="20" viewBox="0 0 20 20" fill="none" xmlns="http://www.w3.org/2000/svg">
<path d="M3.70857 11.5898L9.50241 17.0326C9.64756 17.1689 9.72013 17.2371 9.79906 17.2716C9.92694 17.3277 10.0724 17.3277 10.2003 17.2716C10.2792 17.2371 10.3518 17.1689 10.4969 17.0326L16.2908 11.5898C17.9209 10.0585 18.1189 7.53851 16.7479 5.7714L16.4901 5.43913C14.8499 3.32516 11.5577 3.67969 10.4052 6.09438C10.2424 6.43547 9.75691 6.43547 9.59412 6.09438C8.44165 3.67969 5.14944 3.32516 3.50929 5.43913L3.2515 5.7714C1.88046 7.53851 2.07842 10.0585 3.70857 11.5898Z" stroke="#454545" stroke-width="1.5"/>
</svg>
