<svg width="30" height="30" viewBox="0 0 30 30" fill="none" xmlns="http://www.w3.org/2000/svg">
<circle cx="15" cy="15" r="15" fill="#169C84"/>
<path d="M23.0418 12.9744C23.2523 12.3791 23.3253 11.7483 23.256 11.1243C23.1867 10.5002 22.9766 9.89736 22.6398 9.35599C22.1407 8.53713 21.3782 7.88881 20.4624 7.50457C19.5466 7.12035 18.5249 7.02007 17.5447 7.21821C17.1025 6.74893 16.5591 6.374 15.9507 6.11853C15.3422 5.86307 14.6829 5.73296 14.0168 5.7369C13.0146 5.73463 12.0375 6.03216 11.2264 6.5866C10.4153 7.14105 9.81216 7.92376 9.50384 8.82189C8.85096 8.94777 8.23417 9.20354 7.69475 9.5721C7.15532 9.94066 6.70572 10.4135 6.37604 10.959C5.87287 11.7756 5.65809 12.7215 5.76267 13.6606C5.86725 14.5996 6.28579 15.483 6.95792 16.1835C6.74747 16.7788 6.67446 17.4095 6.74379 18.0336C6.81311 18.6576 7.02317 19.2605 7.3599 19.8019C7.85914 20.6207 8.62164 21.2689 9.5374 21.6532C10.4532 22.0374 11.4749 22.1377 12.4551 21.9396C12.8972 22.4089 13.4407 22.7838 14.0491 23.0393C14.6575 23.2948 15.3169 23.4249 15.983 23.4209C16.9857 23.4234 17.9633 23.1257 18.7747 22.5709C19.5861 22.0162 20.1894 21.2329 20.4974 20.3342C21.1503 20.2083 21.7671 19.9526 22.3065 19.584C22.8459 19.2155 23.2955 18.7426 23.6252 18.1971C24.1278 17.3806 24.342 16.4348 24.2372 15.4962C24.1324 14.5576 23.7138 13.6746 23.0418 12.9744ZM15.9845 22.2649C15.1614 22.266 14.3642 21.9945 13.7321 21.4979C13.7606 21.4833 13.8106 21.4575 13.8432 21.4387L17.5817 19.4048C17.6755 19.3545 17.7535 19.2816 17.8074 19.1935C17.8615 19.1055 17.8896 19.0055 17.8889 18.9038V13.9397L19.4691 14.7991C19.4774 14.803 19.4845 14.8087 19.4899 14.8158C19.4953 14.823 19.4987 14.8312 19.4998 14.8399V18.9509C19.4987 19.8289 19.128 20.6707 18.4691 21.2919C17.8102 21.9131 16.9167 22.263 15.9845 22.2649ZM8.42447 19.2239C8.01219 18.5529 7.8636 17.7668 8.00471 17.0031C8.03247 17.0188 8.08096 17.0467 8.11576 17.0655L11.8543 19.0994C11.9475 19.1506 12.0535 19.1777 12.1614 19.1777C12.2692 19.1777 12.3752 19.1506 12.4684 19.0994L17.0328 16.6172V18.3359C17.0333 18.3446 17.0315 18.3534 17.0276 18.3614C17.0236 18.3694 17.0177 18.3763 17.0102 18.3816L13.2309 20.4367C12.4226 20.8752 11.4625 20.9937 10.5614 20.7664C9.66032 20.539 8.8918 19.9842 8.42447 19.2239ZM7.44097 11.537C7.85146 10.8651 8.49982 10.3508 9.27249 10.0839C9.27249 10.1142 9.27064 10.1679 9.27064 10.2052V14.273C9.26998 14.3746 9.29807 14.4745 9.352 14.5625C9.40593 14.6505 9.48376 14.7234 9.5775 14.7736L14.1419 17.2555L12.5617 18.1148C12.5539 18.1197 12.5449 18.1226 12.5356 18.1234C12.5263 18.1242 12.517 18.1228 12.5084 18.1194L8.72874 16.0625C7.92177 15.6223 7.33305 14.8988 7.09165 14.0504C6.85025 13.2021 6.97587 12.2982 7.44097 11.537ZM20.4238 14.3825L15.8594 11.9003L17.4396 11.0412C17.4474 11.0364 17.4563 11.0335 17.4656 11.0327C17.4749 11.0319 17.4843 11.0333 17.4928 11.0367L21.2725 13.0919C21.8516 13.4069 22.3233 13.8708 22.6326 14.4292C22.9419 14.9876 23.0758 15.6174 23.0187 16.245C22.9617 16.8725 22.716 17.4717 22.3105 17.9725C21.9049 18.4733 21.3562 18.8548 20.7287 19.0725C20.7287 19.0418 20.7287 18.9882 20.7287 18.9509V14.8831C20.7296 14.7817 20.7018 14.6818 20.6482 14.5939C20.5946 14.5059 20.5172 14.4329 20.4238 14.3825ZM21.9965 12.153C21.9688 12.137 21.9203 12.1094 21.8855 12.0906L18.1469 10.0567C18.0537 10.0055 17.9478 9.97851 17.8399 9.97851C17.732 9.97851 17.626 10.0055 17.5328 10.0567L12.9685 12.539V10.8202C12.968 10.8114 12.9697 10.8027 12.9737 10.7947C12.9776 10.7868 12.9836 10.7798 12.9911 10.7746L16.7703 8.72114C17.3493 8.4067 18.0114 8.25406 18.6791 8.28105C19.3469 8.30805 19.9926 8.51358 20.5408 8.87359C21.0891 9.2336 21.5171 9.73321 21.7749 10.314C22.0327 10.8947 22.1096 11.5326 21.9965 12.153ZM12.1094 15.2164L10.5288 14.357C10.5205 14.3531 10.5133 14.3474 10.508 14.3403C10.5026 14.3332 10.4992 14.3249 10.4981 14.3162V10.2052C10.4985 9.57559 10.6894 8.95909 11.0483 8.42789C11.4072 7.8967 11.9194 7.47278 12.5248 7.20577C13.1303 6.93876 13.8039 6.83971 14.467 6.9202C15.13 7.00069 15.755 7.2574 16.2688 7.66027C16.2403 7.67491 16.1907 7.70071 16.1577 7.71954L12.4192 9.75342C12.3253 9.80365 12.2475 9.8765 12.1934 9.96449C12.1395 10.0525 12.1113 10.1524 12.112 10.254L12.1094 15.2164ZM12.9677 13.4733L15.0006 12.3674L17.0335 13.4726V15.6835L15.0006 16.7887L12.9677 15.6835V13.4733Z" fill="white"/>
</svg>
