<svg width="30" height="30" viewBox="0 0 30 30" fill="none" xmlns="http://www.w3.org/2000/svg">
<path d="M3.75019 14.9999C3.75019 15.4972 3.94773 15.9741 4.29936 16.3257C4.65099 16.6774 5.1279 16.8749 5.62519 16.8749H20.4752L15.5502 21.7999C15.219 22.1553 15.0387 22.6254 15.0472 23.1112C15.0558 23.597 15.2526 24.0604 15.5961 24.4039C15.9397 24.7475 16.4031 24.9443 16.8889 24.9528C17.3746 24.9614 17.8447 24.7811 18.2002 24.4499L26.3252 16.3249C26.6763 15.9733 26.8735 15.4968 26.8735 14.9999C26.8735 14.503 26.6763 14.0265 26.3252 13.6749L18.2002 5.5499C18.0285 5.36568 17.8215 5.21792 17.5915 5.11544C17.3615 5.01296 17.1132 4.95786 16.8615 4.95342C16.6097 4.94897 16.3597 4.99529 16.1262 5.08959C15.8927 5.18389 15.6806 5.32425 15.5026 5.5023C15.3245 5.68035 15.1842 5.89243 15.0899 6.1259C14.9956 6.35937 14.9493 6.60944 14.9537 6.8612C14.9581 7.11296 15.0133 7.36124 15.1157 7.59124C15.2182 7.82124 15.366 8.02824 15.5502 8.1999L20.4752 13.1249L5.62519 13.1249C4.59019 13.1249 3.75019 13.9649 3.75019 14.9999Z" fill="white"/>
</svg>
