<svg width="46" height="46" viewBox="0 0 46 46" fill="none" xmlns="http://www.w3.org/2000/svg">
<g clip-path="url(#clip0_554_733)">
<path d="M23.0002 3.83301C33.5859 3.83301 42.1668 12.4139 42.1668 22.9997C42.1668 33.5854 33.5859 42.1663 23.0002 42.1663C12.4144 42.1663 3.8335 33.5854 3.8335 22.9997C3.8335 12.4139 12.4144 3.83301 23.0002 3.83301ZM23.0002 7.66634C18.9335 7.66634 15.0334 9.28181 12.1579 12.1574C9.2823 15.0329 7.66683 18.933 7.66683 22.9997C7.66683 27.0663 9.2823 30.9664 12.1579 33.842C15.0334 36.7175 18.9335 38.333 23.0002 38.333C27.0668 38.333 30.9669 36.7175 33.8425 33.842C36.718 30.9664 38.3335 27.0663 38.3335 22.9997C38.3335 18.933 36.718 15.0329 33.8425 12.1574C30.9669 9.28181 27.0668 7.66634 23.0002 7.66634ZM29.7756 16.0633C30.1197 15.7159 30.5836 15.5131 31.0723 15.4965C31.561 15.48 32.0376 15.6508 32.4044 15.9741C32.7713 16.2973 33.0008 16.7486 33.0458 17.2355C33.0908 17.7224 32.9481 18.2082 32.6467 18.5933L32.4877 18.7734L21.7812 29.4818C21.4157 29.8472 20.9289 30.0657 20.413 30.0957C19.8971 30.1257 19.3882 29.9653 18.9828 29.6448L18.7988 29.4818L13.5127 24.1957C13.1653 23.8516 12.9625 23.3877 12.9459 22.899C12.9294 22.4103 13.1002 21.9337 13.4235 21.5668C13.7468 21.1999 14.198 20.9705 14.6849 20.9255C15.1719 20.8804 15.6576 21.0232 16.0427 21.3245L16.2228 21.4855L20.29 25.5508L29.7775 16.0633H29.7756Z" fill="url(#paint0_linear_554_733)"/>
</g>
<defs>
<linearGradient id="paint0_linear_554_733" x1="17.6875" y1="-32.1045" x2="71.2021" y2="17.9096" gradientUnits="userSpaceOnUse">
<stop stop-color="#7385EA"/>
<stop offset="1" stop-color="#0821AF"/>
</linearGradient>
<clipPath id="clip0_554_733">
<rect width="46" height="46" fill="white"/>
</clipPath>
</defs>
</svg>
