<svg width="32" height="32" viewBox="0 0 32 32" fill="none" xmlns="http://www.w3.org/2000/svg">
<path d="M24.6815 14.1854C24.9088 13.5121 24.9876 12.7987 24.9127 12.093C24.8379 11.3872 24.6111 10.7054 24.2475 10.0931C23.7087 9.16702 22.8855 8.4338 21.8969 7.99925C20.9083 7.56471 19.8053 7.4513 18.7471 7.67539C18.2698 7.14465 17.6831 6.72063 17.0263 6.43171C16.3694 6.14279 15.6577 5.99563 14.9385 6.0001C13.8566 5.99752 12.8018 6.33402 11.9262 6.96107C11.0506 7.58812 10.3995 8.47333 10.0666 9.48908C9.36183 9.63143 8.69597 9.9207 8.11364 10.3375C7.53131 10.7544 7.04594 11.2891 6.69004 11.906C6.14684 12.8296 5.91498 13.8994 6.02788 14.9614C6.14078 16.0234 6.5926 17.0225 7.3182 17.8147C7.09101 18.488 7.01219 19.2013 7.08704 19.9071C7.16188 20.6128 7.38865 21.2946 7.75216 21.9069C8.29111 22.833 9.11426 23.5661 10.1029 24.0007C11.0915 24.4352 12.1945 24.5487 13.2526 24.3246C13.7299 24.8554 14.3167 25.2794 14.9735 25.5683C15.6303 25.8572 16.3421 26.0044 17.0612 25.9999C18.1437 26.0027 19.199 25.6661 20.0749 25.0386C20.9509 24.4112 21.6021 23.5253 21.9347 22.509C22.6395 22.3666 23.3054 22.0774 23.8877 21.6605C24.47 21.2437 24.9554 20.7089 25.3113 20.092C25.8538 19.1686 26.0852 18.099 25.972 17.0374C25.8588 15.9759 25.4069 14.9772 24.6815 14.1854ZM17.0628 24.6925C16.1742 24.6937 15.3136 24.3867 14.6312 23.8251C14.662 23.8085 14.716 23.7793 14.7511 23.7581L18.7871 21.4578C18.8884 21.401 18.9725 21.3185 19.0308 21.2189C19.0891 21.1193 19.1194 21.0062 19.1187 20.8913V15.2771L20.8246 16.249C20.8336 16.2534 20.8413 16.2599 20.8471 16.268C20.8529 16.276 20.8565 16.2854 20.8578 16.2951V20.9445C20.8565 21.9375 20.4564 22.8896 19.7451 23.5921C19.0337 24.2946 18.0692 24.6903 17.0628 24.6925ZM8.90141 21.2532C8.45634 20.4944 8.29593 19.6054 8.44827 18.7416C8.47823 18.7594 8.53058 18.7909 8.56815 18.8122L12.6041 21.1124C12.7047 21.1704 12.8191 21.201 12.9356 21.201C13.052 21.201 13.1664 21.1704 13.267 21.1124L18.1945 18.3052V20.249C18.195 20.2589 18.1931 20.2688 18.1889 20.2778C18.1846 20.2868 18.1782 20.2947 18.1701 20.3006L14.0902 22.6249C13.2175 23.1208 12.1811 23.2549 11.2083 22.9977C10.2356 22.7406 9.40592 22.1132 8.90141 21.2532ZM7.83968 12.5597C8.28282 11.7999 8.98275 11.2182 9.81689 10.9164C9.81689 10.9507 9.81489 11.0114 9.81489 11.0536V15.654C9.81418 15.7689 9.8445 15.8819 9.90272 15.9815C9.96094 16.081 10.045 16.1634 10.1462 16.2202L15.0736 19.0271L13.3677 19.999C13.3593 20.0045 13.3496 20.0078 13.3396 20.0087C13.3296 20.0096 13.3194 20.008 13.3102 20.0041L9.22988 17.6779C8.35873 17.1801 7.72317 16.3618 7.46257 15.4023C7.20197 14.4429 7.33758 13.4207 7.83968 12.5597ZM21.8552 15.7778L16.9277 12.9706L18.6336 11.9991C18.642 11.9936 18.6517 11.9903 18.6617 11.9894C18.6718 11.9885 18.6819 11.9901 18.6911 11.994L22.7715 14.3182C23.3966 14.6745 23.9058 15.1991 24.2397 15.8307C24.5736 16.4622 24.7182 17.1745 24.6566 17.8842C24.595 18.5939 24.3297 19.2716 23.892 19.838C23.4541 20.4043 22.8619 20.8359 22.1844 21.0821C22.1844 21.0474 22.1844 20.9867 22.1844 20.9445V16.344C22.1854 16.2293 22.1554 16.1164 22.0975 16.0169C22.0397 15.9174 21.956 15.8349 21.8552 15.7778ZM23.5531 13.2564C23.5231 13.2383 23.4708 13.2071 23.4332 13.1859L19.3972 10.8856C19.2966 10.8277 19.1823 10.7972 19.0658 10.7972C18.9493 10.7972 18.8349 10.8277 18.7343 10.8856L13.8069 13.6929V11.7491C13.8063 11.7392 13.8082 11.7293 13.8125 11.7203C13.8168 11.7113 13.8232 11.7034 13.8312 11.6975L17.9112 9.37513C18.5362 9.01952 19.2509 8.84688 19.9718 8.87741C20.6926 8.90795 21.3897 9.14039 21.9816 9.54754C22.5734 9.9547 23.0355 10.5197 23.3138 11.1766C23.5921 11.8334 23.6751 12.5548 23.5531 13.2564ZM12.8794 16.721L11.1731 15.7491C11.1642 15.7447 11.1564 15.7382 11.1507 15.7301C11.1449 15.7221 11.1412 15.7127 11.14 15.7029V11.0536C11.1404 10.3415 11.3465 9.64424 11.7339 9.04348C12.1214 8.44272 12.6743 7.9633 13.3279 7.66132C13.9815 7.35935 14.7088 7.24732 15.4246 7.33835C16.1404 7.42938 16.8151 7.71971 17.3697 8.17534C17.3389 8.1919 17.2854 8.22108 17.2498 8.24237L13.2139 10.5426C13.1126 10.5994 13.0285 10.6818 12.9702 10.7813C12.9119 10.8808 12.8816 10.9939 12.8822 11.1088L12.8794 16.721ZM13.8061 14.7496L16.0007 13.4989L18.1952 14.7488V17.2493L16.0007 18.4992L13.8061 17.2493V14.7496Z" fill="#909090"/>
</svg>
