<svg width="32" height="32" viewBox="0 0 32 32" fill="none" xmlns="http://www.w3.org/2000/svg">
<path d="M6.1499 11.7801V21.51C6.1499 23.41 7.49989 24.19 9.13989 23.25L11.49 21.91C12.08 21.61 12.77 21.6 13.38 21.86L18.63 24.49C19.24 24.75 19.9299 24.73 20.5199 24.44L24.85 21.96C25.44 21.57 25.82 20.93 25.86 20.22V10.49C25.86 8.59002 24.51 7.81003 22.87 8.75003L20.5199 10.09C19.9299 10.39 19.24 10.4 18.63 10.14L13.38 7.52005C12.77 7.26005 12.08 7.27998 11.49 7.56998L7.15991 10.0501C6.55991 10.4301 6.1899 11.0701 6.1499 11.7801Z" stroke="#909090" stroke-width="1.5" stroke-linecap="round" stroke-linejoin="round"/>
<path d="M12.4199 8.00009V21" stroke="#909090" stroke-width="1.5" stroke-linecap="round" stroke-linejoin="round"/>
<path d="M19.59 10.6201V23.9999" stroke="#909090" stroke-width="1.5" stroke-linecap="round" stroke-linejoin="round"/>
</svg>
