<svg width="26" height="18" viewBox="0 0 26 18" fill="none" xmlns="http://www.w3.org/2000/svg">
<ellipse cx="19.5" cy="6.63158" rx="6.5" ry="6.63158" fill="url(#paint0_radial_41_2780)"/>
<path fill-rule="evenodd" clip-rule="evenodd" d="M5.23054 17.9997C5.21946 17.9998 5.20837 17.9998 5.19728 17.9998C2.3269 17.9998 0 15.614 0 12.6709C0 9.72782 2.3269 7.34199 5.19728 7.34199C5.81552 7.34199 6.40854 7.45267 6.95853 7.65576C8.04974 5.3602 10.2647 3.78943 12.8195 3.78943C15.5285 3.78943 17.8554 5.55545 18.8656 8.07897C21.3085 8.33675 23.2139 10.4534 23.2139 13.0263C23.2139 15.7731 21.0422 17.9999 18.3631 17.9999C18.3482 17.9999 18.3332 17.9999 18.3182 17.9997H12.8637C12.849 17.9998 12.8343 17.9999 12.8195 17.9999C12.8048 17.9999 12.7901 17.9998 12.7754 17.9997H5.23054Z" fill="url(#paint1_radial_41_2780)"/>
<defs>
<radialGradient id="paint0_radial_41_2780" cx="0" cy="0" r="1" gradientUnits="userSpaceOnUse" gradientTransform="translate(17.875 4.14474) rotate(51.2722) scale(11.6884 11.6399)">
<stop stop-color="#FFD18B"/>
<stop offset="1" stop-color="#FFA41D"/>
</radialGradient>
<radialGradient id="paint1_radial_41_2780" cx="0" cy="0" r="1" gradientUnits="userSpaceOnUse" gradientTransform="translate(10.5675 7.51967) rotate(90) scale(10.4802 17.1203)">
<stop stop-color="#FCFDFF"/>
<stop offset="1" stop-color="#E3E9F1"/>
</radialGradient>
</defs>
</svg>
